<?xml version="1.0" encoding="UTF-8" standalone="no"?>
<svg
   xmlns:dc="http://purl.org/dc/elements/1.1/"
   xmlns:cc="http://creativecommons.org/ns#"
   xmlns:rdf="http://www.w3.org/1999/02/22-rdf-syntax-ns#"
   xmlns:svg="http://www.w3.org/2000/svg"
   xmlns="http://www.w3.org/2000/svg"
   xmlns:sodipodi="http://sodipodi.sourceforge.net/DTD/sodipodi-0.dtd"
   xmlns:inkscape="http://www.inkscape.org/namespaces/inkscape"
   viewBox="0 0 36 36"
   version="1.1"
   id="svg124"
   sodipodi:docname="crown-bronze.svg"
   inkscape:version="0.92.2 2405546, 2018-03-11">
  <metadata
     id="metadata130">
    <rdf:RDF>
      <cc:Work
         rdf:about="">
        <dc:format>image/svg+xml</dc:format>
        <dc:type
           rdf:resource="http://purl.org/dc/dcmitype/StillImage" />
      </cc:Work>
    </rdf:RDF>
  </metadata>
  <defs
     id="defs128" />
  <sodipodi:namedview
     pagecolor="#ffffff"
     bordercolor="#666666"
     borderopacity="1"
     objecttolerance="10"
     gridtolerance="10"
     guidetolerance="10"
     inkscape:pageopacity="0"
     inkscape:pageshadow="2"
     inkscape:window-width="1919"
     inkscape:window-height="1056"
     id="namedview126"
     showgrid="false"
     inkscape:zoom="23.694444"
     inkscape:cx="14.623681"
     inkscape:cy="18"
     inkscape:window-x="1"
     inkscape:window-y="1"
     inkscape:window-maximized="1"
     inkscape:current-layer="svg124" />
  <path
     fill="#F4900C"
     d="M14.174 17.075L6.75 7.594l-3.722 9.481z"
     id="path90"
     style="fill:#aa6929;fill-opacity:1" />
  <path
     fill="#F4900C"
     d="M17.938 5.534l-6.563 12.389H24.5z"
     id="path92"
     style="fill:#aa6929;fill-opacity:1" />
  <path
     fill="#F4900C"
     d="M21.826 17.075l7.424-9.481 3.722 9.481z"
     id="path94"
     style="fill:#aa6929;fill-opacity:1" />
  <path
     fill="#FFCC4D"
     d="M28.669 15.19L23.887 3.523l-5.88 11.668-.007.003-.007-.004-5.88-11.668L7.331 15.19C4.197 10.833 1.28 8.042 1.28 8.042S3 20.75 3 33h30c0-12.25 1.72-24.958 1.72-24.958s-2.917 2.791-6.051 7.148z"
     id="path96"
     style="fill:#cd7f32;fill-opacity:1" />
  <circle
     fill="#5C913B"
     cx="17.957"
     cy="22"
     r="3.688"
     id="circle98" />
  <circle
     fill="#981CEB"
     cx="26.463"
     cy="22"
     r="2.412"
     id="circle100" />
  <circle
     fill="#DD2E44"
     cx="32.852"
     cy="22"
     r="1.986"
     id="circle102" />
  <circle
     fill="#981CEB"
     cx="9.45"
     cy="22"
     r="2.412"
     id="circle104" />
  <circle
     fill="#DD2E44"
     cx="3.061"
     cy="22"
     r="1.986"
     id="circle106" />
  <path
     fill="#FFAC33"
     d="M33 34H3c-.552 0-1-.447-1-1s.448-1 1-1h30c.553 0 1 .447 1 1s-.447 1-1 1zm0-3.486H3c-.552 0-1-.447-1-1s.448-1 1-1h30c.553 0 1 .447 1 1s-.447 1-1 1z"
     id="path108"
     style="fill:#aa6929;fill-opacity:1" />
  <circle
     fill="#FFCC4D"
     cx="1.447"
     cy="8.042"
     r="1.407"
     id="circle110"
     style="fill:#cd7f32;fill-opacity:1" />
  <circle
     fill="#F4900C"
     cx="6.75"
     cy="7.594"
     r="1.192"
     id="circle112"
     style="fill:#aa6929;fill-opacity:1" />
  <circle
     fill="#FFCC4D"
     cx="12.113"
     cy="3.523"
     r="1.784"
     id="circle114"
     style="fill:#cd7f32;fill-opacity:1" />
  <circle
     fill="#FFCC4D"
     cx="34.553"
     cy="8.042"
     r="1.407"
     id="circle116"
     style="fill:#cd7f32;fill-opacity:1" />
  <circle
     fill="#F4900C"
     cx="29.25"
     cy="7.594"
     r="1.192"
     id="circle118"
     style="fill:#aa6929;fill-opacity:1" />
  <circle
     fill="#FFCC4D"
     cx="23.887"
     cy="3.523"
     r="1.784"
     id="circle120"
     style="fill:#cd7f32;fill-opacity:1" />
  <circle
     fill="#F4900C"
     cx="17.938"
     cy="5.534"
     r="1.784"
     id="circle122"
     style="fill:#aa6929;fill-opacity:1" />
</svg>
