<?xml version="1.0" encoding="UTF-8" standalone="no"?>
<!-- Created with Inkscape (http://www.inkscape.org/) -->

<svg
   xmlns:dc="http://purl.org/dc/elements/1.1/"
   xmlns:cc="http://creativecommons.org/ns#"
   xmlns:rdf="http://www.w3.org/1999/02/22-rdf-syntax-ns#"
   xmlns:svg="http://www.w3.org/2000/svg"
   xmlns="http://www.w3.org/2000/svg"
   xmlns:sodipodi="http://sodipodi.sourceforge.net/DTD/sodipodi-0.dtd"
   xmlns:inkscape="http://www.inkscape.org/namespaces/inkscape"
   width="304.62692mm"
   height="235.53522mm"
   viewBox="0 0 304.62692 235.53522"
   version="1.1"
   id="svg8"
   inkscape:version="0.92.2 2405546, 2018-03-11"
   sodipodi:docname="mewna-404.svg"
   inkscape:export-filename="/home/amy/Projects/cute/amy/mewna-3-green.svg.png"
   inkscape:export-xdpi="96"
   inkscape:export-ydpi="96">
  <defs
     id="defs2" />
  <sodipodi:namedview
     id="base"
     pagecolor="#ffffff"
     bordercolor="#666666"
     borderopacity="1.0"
     inkscape:pageopacity="0.0"
     inkscape:pageshadow="2"
     inkscape:zoom="0.35355339"
     inkscape:cx="158.43476"
     inkscape:cy="220.79096"
     inkscape:document-units="mm"
     inkscape:current-layer="layer10"
     showgrid="false"
     inkscape:window-width="1919"
     inkscape:window-height="1054"
     inkscape:window-x="1"
     inkscape:window-y="1"
     inkscape:window-maximized="1"
     fit-margin-top="0"
     fit-margin-left="0"
     fit-margin-right="0"
     fit-margin-bottom="0"
     inkscape:snap-object-midpoints="false" />
  <metadata
     id="metadata5">
    <rdf:RDF>
      <cc:Work
         rdf:about="">
        <dc:format>image/svg+xml</dc:format>
        <dc:type
           rdf:resource="http://purl.org/dc/dcmitype/StillImage" />
        <dc:title></dc:title>
      </cc:Work>
    </rdf:RDF>
  </metadata>
  <g
     inkscape:groupmode="layer"
     id="layer4"
     inkscape:label="Body fill"
     style="display:inline"
     transform="translate(-18.218892,-6.9492456)">
    <path
       transform="translate(15.958317,43.36385)"
       style="display:inline;opacity:1;fill:#db325c;fill-opacity:1;stroke:none;stroke-width:0.26726952;stroke-opacity:1"
       d="m 121.95605,195.61974 c -27.128766,-1.13323 -66.728066,-0.90007 -99.094446,-8.01594 -5.54634,-1.21939 -12.6313,-3.92071 -15.9911797,-5.87543 -1.53268,-0.89168 -3.62573,-1.91262 -4.18505,-4.11169 -0.51843,-2.03832 -0.49816,-7.50109 -0.27876,-10.66156 1.93693,-27.90056 4.26303,-45.46052 13.6876497,-64.72438 3.29519,-6.735343 6.33601,-12.039048 10.4476,-18.222401 l 2.87548,-4.324387 -2.24476,-7.00573 c -4.96189,-15.485695 -6.66667,-23.702298 -7.33093,-35.333344 -0.25607,-4.483608 -0.0345,-12.752758 0.45288,-16.899286 0.20184,-1.717374 -0.14819,-1.711217 4.60839,-0.08108 16.26764,5.57512 34.17257,18.147778 54.44995,38.234198 l 4.83716,4.791612 4.38364,-0.44115 c 9.27478,-0.933379 24.181546,-2.567041 24.600556,-2.696025 1.25925,-0.387636 1.58989,-3.568261 2.23495,-21.49892 0.58157,-16.166091 1.72229,-26.274225 3.76063,-33.3237329 0.7219,-2.496682 1.25223,-5.39528495 2.24216,-5.43034795327 C 122.73441,-0.04669385 130.23342,11.166666 135.35507,18.441745 c 32.29781,45.877633 48.94698,90.021365 51.81266,137.376535 0.28834,4.76474 0.36496,22.3281 0.0375,25.79151 -0.0524,2.0618 -1.00652,3.20936 -2.44085,4.0561 -12.93915,7.67107 -33.9074,11.1611 -62.80834,9.95385 z"
       id="path1225-6"
       inkscape:connector-curvature="0"
       sodipodi:nodetypes="sassssscssssscscsssssccs" />
  </g>
  <g
     inkscape:groupmode="layer"
     id="layer3"
     inkscape:label="arm"
     transform="translate(-2.2605746,36.414604)"
     style="display:inline">
    <path
       style="fill:#db325c;fill-opacity:1;fill-rule:evenodd;stroke:none;stroke-width:0.26458332px;stroke-linecap:butt;stroke-linejoin:miter;stroke-opacity:1"
       d="m 161.99114,178.13331 c 0.99219,6.08541 40.84491,-16.00739 50.93229,-24.87083 8.18397,-7.63566 5.6224,-15.31276 1.65365,-22.75417 -2.10583,-3.58292 -6.78377,-9.89918 -16.93334,-9.525 -12.72203,0.39757 -38.36458,19.05 -38.36458,19.05 z"
       id="path2179"
       inkscape:connector-curvature="0"
       sodipodi:nodetypes="cccccc" />
  </g>
  <g
     inkscape:groupmode="layer"
     id="layer8"
     inkscape:label="sign"
     style="display:inline"
     transform="translate(-2.2605746,36.414604)">
    <rect
       style="opacity:1;fill:#ffffff;fill-opacity:1;stroke:#000000;stroke-width:1;stroke-miterlimit:4;stroke-dasharray:none;stroke-opacity:1"
       id="rect2181"
       width="186.26666"
       height="81.491669"
       x="120.12083"
       y="-35.914604" />
    <text
       xml:space="preserve"
       style="font-style:normal;font-variant:normal;font-weight:normal;font-stretch:normal;font-size:70.55554962px;line-height:125%;font-family:'Open Sans';-inkscape-font-specification:'Open Sans, Normal';font-variant-ligatures:normal;font-variant-caps:normal;font-variant-numeric:normal;font-feature-settings:normal;text-align:start;letter-spacing:0px;word-spacing:0px;writing-mode:lr-tb;text-anchor:start;fill:#000000;fill-opacity:1;stroke:none;stroke-width:0.26458332px;stroke-linecap:butt;stroke-linejoin:miter;stroke-opacity:1"
       x="151.87083"
       y="30.834412"
       id="text2204"><tspan
         sodipodi:role="line"
         x="151.87083"
         y="30.834412"
         id="tspan2202"
         style="stroke-width:0.26458332px"><tspan
           x="151.87083"
           y="30.834412"
           id="tspan2200"
           style="stroke-width:0.26458332px">404</tspan></tspan></text>
    <rect
       style="opacity:1;fill:#e8e8e8;fill-opacity:1;stroke:none;stroke-width:1;stroke-miterlimit:4;stroke-dasharray:none;stroke-opacity:1"
       id="rect2198"
       width="21.32811"
       height="153.03853"
       x="202.73853"
       y="46.082088" />
  </g>
  <g
     inkscape:groupmode="layer"
     id="layer10"
     inkscape:label="Face 1"
     style="display:inline"
     transform="translate(-18.218892,-6.9492456)">
    <path
       style="fill:#000000;fill-opacity:1;fill-rule:evenodd;stroke:#000000;stroke-width:0.47177935px;stroke-linecap:butt;stroke-linejoin:miter;stroke-opacity:1"
       d="m 97.672532,149.5323 c -2.995743,0.23288 -4.176276,5.17369 -4.246032,8.49203 0.0608,5.53919 2.141774,6.35614 3.980653,6.3985 4.483917,2.5e-4 5.293857,-4.0063 5.278047,-6.75235 0.11913,-4.11488 -2.1051,-8.09228 -5.012668,-8.13818 z"
       id="path5079"
       inkscape:connector-curvature="0"
       sodipodi:nodetypes="ccccc" />
    <path
       style="fill:#000000;fill-opacity:1;fill-rule:evenodd;stroke:#000000;stroke-width:0.48429045px;stroke-linecap:butt;stroke-linejoin:miter;stroke-opacity:1"
       d="m 159.11423,149.99561 c -2.163,-0.19503 -4.68206,4.56576 -4.87985,8.17589 -0.25198,6.76026 3.99109,6.89686 4.79425,6.93451 4.81013,-0.21857 5.04652,-4.56191 5.05107,-6.63487 0.0412,-3.27082 -1.38665,-8.03203 -4.96547,-8.47553 z"
       id="path5096"
       inkscape:connector-curvature="0"
       sodipodi:nodetypes="ccccc" />
    <path
       style="fill:none;fill-opacity:1;fill-rule:evenodd;stroke:#000000;stroke-width:3;stroke-linecap:round;stroke-linejoin:miter;stroke-miterlimit:4;stroke-dasharray:none;stroke-opacity:1;paint-order:normal"
       d="m 112.58491,188.9224 c 4.09534,7.73828 5.34321,9.19676 6.21301,9.05728 1.18368,0.0763 8.19918,-6.56386 9.28311,-6.58719 1.64553,0.0935 3.68523,6.77674 4.93824,6.85178 2.68968,0.007 8.50671,-6.30323 13.18102,-9.47823"
       id="path5100"
       inkscape:connector-curvature="0"
       sodipodi:nodetypes="ccccc" />
  </g>
</svg>
