<?xml version="1.0" encoding="UTF-8" standalone="no"?>
<!-- Created with Inkscape (http://www.inkscape.org/) -->

<svg
   xmlns:dc="http://purl.org/dc/elements/1.1/"
   xmlns:cc="http://creativecommons.org/ns#"
   xmlns:rdf="http://www.w3.org/1999/02/22-rdf-syntax-ns#"
   xmlns:svg="http://www.w3.org/2000/svg"
   xmlns="http://www.w3.org/2000/svg"
   xmlns:sodipodi="http://sodipodi.sourceforge.net/DTD/sodipodi-0.dtd"
   xmlns:inkscape="http://www.inkscape.org/namespaces/inkscape"
   width="185.15878mm"
   height="195.85356mm"
   viewBox="0 0 185.15878 195.85356"
   version="1.1"
   id="svg8"
   inkscape:version="0.92.2 2405546, 2018-03-11"
   sodipodi:docname="mewna-template-emotes.svg">
  <defs
     id="defs2" />
  <sodipodi:namedview
     id="base"
     pagecolor="#ffffff"
     bordercolor="#666666"
     borderopacity="1.0"
     inkscape:pageopacity="0.0"
     inkscape:pageshadow="2"
     inkscape:zoom="0.7071068"
     inkscape:cx="110.65312"
     inkscape:cy="316.51644"
     inkscape:document-units="mm"
     inkscape:current-layer="layer10"
     showgrid="false"
     inkscape:window-width="1919"
     inkscape:window-height="1054"
     inkscape:window-x="1"
     inkscape:window-y="1"
     inkscape:window-maximized="1"
     fit-margin-top="0"
     fit-margin-left="0"
     fit-margin-right="0"
     fit-margin-bottom="0" />
  <metadata
     id="metadata5">
    <rdf:RDF>
      <cc:Work
         rdf:about="">
        <dc:format>image/svg+xml</dc:format>
        <dc:type
           rdf:resource="http://purl.org/dc/dcmitype/StillImage" />
        <dc:title></dc:title>
      </cc:Work>
    </rdf:RDF>
  </metadata>
  <g
     inkscape:groupmode="layer"
     id="layer4"
     inkscape:label="Body fill"
     style="display:inline"
     transform="translate(-18.218898,-43.36385)">
    <path
       transform="translate(-2.7083329e-8,-1.0208333e-6)"
       style="display:inline;opacity:1;fill:#db325c;fill-opacity:1;stroke:none;stroke-width:0.26726952;stroke-opacity:1"
       d="m 137.91437,238.98359 c -27.12876,-1.13322 -66.728068,-0.90007 -99.094448,-8.01594 -5.54633,-1.21938 -12.6313,-3.9207 -15.99118,-5.87543 -1.53268,-0.89168 -3.62573,-1.91262 -4.18504,-4.11168 -0.51844,-2.03833 -0.49816,-7.5011 -0.27877,-10.66156 1.93694,-27.90056 4.26303,-45.46053 13.68766,-64.72439 3.29519,-6.73534 6.336,-12.03905 10.44759,-18.2224 l 2.87548,-4.32439 -2.24475,-7.00573 c -4.9619,-15.48569 -6.66667,-23.702295 -7.33094,-35.333341 -0.25607,-4.483608 -0.0345,-12.752758 0.45288,-16.899286 0.20185,-1.717374 -0.14818,-1.711217 4.60839,-0.08108 16.26764,5.57512 34.17257,18.147778 54.44995,38.234197 l 4.837158,4.79161 4.38364,-0.44115 c 9.27479,-0.93338 24.18154,-2.56704 24.60056,-2.69602 1.25924,-0.38764 1.58989,-3.56826 2.23495,-21.498922 0.58157,-16.166091 1.72229,-26.274225 3.76062,-33.323733 0.72191,-2.496682 1.25224,-5.395285 2.24217,-5.430348 1.32244,-0.04684 8.82145,11.16652 13.9431,18.441599 32.29781,45.877634 48.94697,90.021364 51.81266,137.376534 0.28834,4.76475 0.36495,22.32811 0.0375,25.79151 -0.0524,2.06181 -1.00651,3.20937 -2.44085,4.05611 -12.93914,7.67107 -33.9074,11.16109 -62.80833,9.95384 z"
       id="path1225-7"
       inkscape:connector-curvature="0"
       sodipodi:nodetypes="sassssscssssscscsssssccs" />
  </g>
  <g
     inkscape:groupmode="layer"
     id="layer5"
     inkscape:label="Face"
     style="display:inline"
     transform="translate(-18.218898,-43.36385)">
    <path
       style="color:#000000;font-style:normal;font-variant:normal;font-weight:normal;font-stretch:normal;font-size:medium;line-height:normal;font-family:sans-serif;font-variant-ligatures:normal;font-variant-position:normal;font-variant-caps:normal;font-variant-numeric:normal;font-variant-alternates:normal;font-feature-settings:normal;text-indent:0;text-align:start;text-decoration:none;text-decoration-line:none;text-decoration-style:solid;text-decoration-color:#000000;letter-spacing:normal;word-spacing:normal;text-transform:none;writing-mode:lr-tb;direction:ltr;text-orientation:mixed;dominant-baseline:auto;baseline-shift:baseline;text-anchor:start;white-space:normal;shape-padding:0;clip-rule:nonzero;display:inline;overflow:visible;visibility:visible;opacity:1;isolation:auto;mix-blend-mode:normal;color-interpolation:sRGB;color-interpolation-filters:linearRGB;solid-color:#000000;solid-opacity:1;vector-effect:none;fill:#000000;fill-opacity:1;fill-rule:evenodd;stroke:#000000;stroke-width:0.26458332px;stroke-linecap:butt;stroke-linejoin:miter;stroke-miterlimit:4;stroke-dasharray:none;stroke-dashoffset:0;stroke-opacity:1;color-rendering:auto;image-rendering:auto;shape-rendering:auto;text-rendering:auto;enable-background:accumulate"
       d="m 147.02148,187.875 c -1.15261,1.56912 -4.26452,4.12751 -7.27343,6.25391 -1.50446,1.06319 -2.98519,2.02139 -4.18555,2.70507 -0.60018,0.34185 -1.1314,0.61489 -1.55664,0.79688 -0.42524,0.18199 -0.75482,0.26533 -0.90039,0.25391 h -0.002 c -0.39448,-0.0272 -0.8205,-0.44683 -1.22461,-1.11133 -0.40412,-0.66451 -0.78563,-1.55062 -1.13477,-2.43164 -0.34914,-0.88103 -0.66716,-1.75683 -0.95898,-2.41407 -0.14591,-0.32861 -0.28339,-0.601 -0.42188,-0.79882 -0.0692,-0.0989 -0.13945,-0.18073 -0.2168,-0.24024 -0.074,-0.0569 -0.16295,-0.0912 -0.25781,-0.0859 -0.0918,-0.006 -0.16561,0.0222 -0.25976,0.0664 -0.10047,0.0472 -0.21797,0.11617 -0.35547,0.20313 -0.27501,0.17391 -0.62619,0.42228 -1.03516,0.72265 -0.81793,0.60075 -1.86671,1.4051 -2.96875,2.20703 -1.10204,0.80194 -2.25871,1.60121 -3.28906,2.1875 -1.02725,0.58454 -1.93448,0.94588 -2.49219,0.91407 -1.91755,-0.3802 -3.11519,-1.69143 -4.02734,-3.35938 -0.91395,-1.67122 -1.52814,-3.68971 -2.26953,-5.41797 l -0.24219,0.10547 c 0.73277,1.70815 1.34642,3.73362 2.2793,5.43945 0.93287,1.70584 2.20039,3.10035 4.21875,3.4961 l 0.008,0.002 h 0.008 c 0.68102,0.0419 1.60232,-0.35395 2.64844,-0.94922 1.04612,-0.59527 2.20882,-1.39857 3.31445,-2.20312 1.10563,-0.80456 2.15483,-1.61119 2.96875,-2.20899 0.40696,-0.2989 0.75513,-0.54568 1.01953,-0.71289 0.1322,-0.0836 0.24459,-0.14627 0.32813,-0.18554 0.0835,-0.0393 0.14457,-0.0452 0.13086,-0.0469 l 0.0156,0.002 0.0137,-0.002 c 0.0141,-0.001 0.0399,0.003 0.084,0.0371 0.0441,0.0339 0.10034,0.0942 0.16015,0.17969 0.11962,0.17087 0.2538,0.43449 0.39649,0.75586 0.28539,0.64274 0.6061,1.51875 0.95703,2.40429 0.35093,0.88554 0.73239,1.78014 1.15234,2.47071 0.41932,0.6895 0.87804,1.19862 1.43164,1.23828 0.25225,0.0198 0.58541,-0.0851 1.0254,-0.27344 0.43998,-0.1883 0.97823,-0.46553 1.58398,-0.81055 1.21151,-0.69003 2.69701,-1.65357 4.20703,-2.7207 3.02004,-2.13426 6.12899,-4.67207 7.33399,-6.3125 z"
       id="path1242"
       inkscape:connector-curvature="0" />
  </g>
  <g
     inkscape:groupmode="layer"
     id="layer10"
     inkscape:label="Face 1"
     style="display:inline"
     transform="translate(-18.218898,-43.36385)">
    <path
       style="fill:#000000;fill-opacity:1;fill-rule:evenodd;stroke:#000000;stroke-width:0.91564494px;stroke-linecap:butt;stroke-linejoin:miter;stroke-opacity:1"
       d="m 92.73019,135.30087 c -5.814237,0.45197 -8.105455,10.04126 -8.240839,16.48161 0.118005,10.75065 4.156826,12.33621 7.725783,12.41841 8.702526,4.9e-4 10.274486,-7.77556 10.243806,-13.10518 0.23122,-7.98629 -4.085646,-15.70577 -9.72875,-15.79484 z"
       id="path5079"
       inkscape:connector-curvature="0"
       sodipodi:nodetypes="ccccc" />
    <path
       style="fill:#000000;fill-opacity:1;fill-rule:evenodd;stroke:#000000;stroke-width:0.90051186px;stroke-linecap:butt;stroke-linejoin:miter;stroke-opacity:1"
       d="m 158.34198,137.32988 c -4.02197,-0.36265 -8.70603,8.48978 -9.07381,15.20263 -0.46855,12.57033 7.42121,12.82433 8.91465,12.89433 8.94417,-0.40641 9.38373,-8.48261 9.39219,-12.33717 0.0766,-6.08191 -2.57841,-14.93512 -9.23303,-15.75979 z"
       id="path5096"
       inkscape:connector-curvature="0"
       sodipodi:nodetypes="ccccc" />
    <path
       style="fill:none;fill-opacity:1;fill-rule:evenodd;stroke:#000000;stroke-width:6;stroke-linecap:round;stroke-linejoin:miter;stroke-miterlimit:4;stroke-dasharray:none;stroke-opacity:1;paint-order:normal"
       d="m 106.32725,186.05593 c 5.78085,10.92313 7.54231,12.98188 8.7701,12.78499 1.67084,0.10771 11.57372,-9.26535 13.10376,-9.29828 2.32278,0.13198 5.20196,9.56585 6.97068,9.67177 3.79667,0.01 12.00782,-8.89746 18.60594,-13.37919"
       id="path5100"
       inkscape:connector-curvature="0"
       sodipodi:nodetypes="ccccc" />
  </g>
</svg>
