<?xml version="1.0" encoding="UTF-8" standalone="no"?>
<!-- Generator: Adobe Illustrator 22.1.0, SVG Export Plug-In . SVG Version: 6.00 Build 0)  -->

<svg
   xmlns:dc="http://purl.org/dc/elements/1.1/"
   xmlns:cc="http://creativecommons.org/ns#"
   xmlns:rdf="http://www.w3.org/1999/02/22-rdf-syntax-ns#"
   xmlns:svg="http://www.w3.org/2000/svg"
   xmlns="http://www.w3.org/2000/svg"
   xmlns:sodipodi="http://sodipodi.sourceforge.net/DTD/sodipodi-0.dtd"
   xmlns:inkscape="http://www.inkscape.org/namespaces/inkscape"
   version="1.1"
   x="0px"
   y="0px"
   viewBox="0 0 664.47705 555.17306"
   xml:space="preserve"
   id="svg220"
   sodipodi:docname="mewna-stickers-gamer-grey.svg"
   width="664.47705"
   height="555.17303"
   inkscape:version="0.92.2 2405546, 2018-03-11"><metadata
   id="metadata226"><rdf:RDF><cc:Work
       rdf:about=""><dc:format>image/svg+xml</dc:format><dc:type
         rdf:resource="http://purl.org/dc/dcmitype/StillImage" /><dc:title></dc:title></cc:Work></rdf:RDF></metadata><defs
   id="defs224">
	
	

	
		<sodipodi:namedview
   showgrid="false"
   pagecolor="#ffffff"
   inkscape:zoom="0.5"
   inkscape:window-y="1080"
   inkscape:window-x="1"
   inkscape:window-width="1919"
   inkscape:window-maximized="1"
   inkscape:window-height="1055"
   inkscape:pageshadow="2"
   inkscape:pageopacity="0.0"
   inkscape:document-units="mm"
   inkscape:cy="367.29431"
   inkscape:cx="-84.85871"
   inkscape:current-layer="layer4"
   id="namedview166"
   fit-margin-top="0"
   fit-margin-right="0"
   fit-margin-left="0"
   fit-margin-bottom="0"
   borderopacity="1.0"
   bordercolor="#666666">
		</sodipodi:namedview>
	
	
		
	
	
	
	
		
	
		
	
		

	<linearGradient
   y2="519.3855"
   x2="362.108"
   y1="519.3855"
   x1="185.66319"
   gradientUnits="userSpaceOnUse"
   id="SVGID_1_">
		<stop
   id="stop188"
   style="stop-color:#525252"
   offset="0" />
		<stop
   id="stop190"
   style="stop-color:#C3D9D9"
   offset="1" />
	</linearGradient>
	
	<linearGradient
   y2="423.33539"
   x2="988.22668"
   y1="469.87241"
   x1="360.0152"
   gradientUnits="userSpaceOnUse"
   id="SVGID_2_">
		<stop
   id="stop195"
   style="stop-color:#FFFFFF"
   offset="0" />
		<stop
   id="stop197"
   style="stop-color:#595959"
   offset="1" />
	</linearGradient>
	

	
	
	
	
	
	
		
	
	
</defs><sodipodi:namedview
   pagecolor="#ffffff"
   bordercolor="#666666"
   borderopacity="1"
   objecttolerance="10"
   gridtolerance="10"
   guidetolerance="10"
   inkscape:pageopacity="0"
   inkscape:pageshadow="2"
   inkscape:window-width="1919"
   inkscape:window-height="1056"
   id="namedview222"
   showgrid="false"
   fit-margin-top="0"
   fit-margin-left="0"
   fit-margin-right="0"
   fit-margin-bottom="0"
   inkscape:zoom="1.4717047"
   inkscape:cx="227.44551"
   inkscape:cy="283.8169"
   inkscape:window-x="1"
   inkscape:window-y="1"
   inkscape:window-maximized="1"
   inkscape:current-layer="svg220" />
<style
   type="text/css"
   id="style138">
	.st0{fill:#82C341;}
	.st1{fill:#49761C;}
	.st2{display:none;}
	.st3{display:inline;stroke:#000000;stroke-width:0.2646;}
	.st4{display:inline;}
	.st5{fill:#DB325C;}
	.st6{stroke:#000000;stroke-width:0.4718;}
	.st7{stroke:#000000;stroke-width:0.4843;}
	.st8{fill:none;stroke:#000000;stroke-width:3;stroke-linecap:round;}
	.st9{display:inline;fill:#FF0000;}
	.st10{display:inline;fill:#F58CD0;}
	.st11{display:inline;fill:#FDA8E0;}
	.st12{fill:url(#SVGID_1_);}
	.st13{fill:url(#SVGID_2_);}
	.st14{fill:#416221;}
	.st15{fill:none;stroke:#41443E;stroke-width:5;stroke-miterlimit:10;}
	.st16{fill:#41443D;stroke:#41443E;stroke-miterlimit:10;}
	.st17{fill:none;stroke:#81C341;stroke-width:28;stroke-miterlimit:10;}
</style>
<ellipse
   style="fill:#828282;fill-opacity:1"
   id="ellipse140"
   ry="93.599998"
   rx="62.5"
   cy="208.56409"
   cx="434.47702"
   class="st0" /><ellipse
   style="fill:#494949;fill-opacity:1"
   id="ellipse142"
   ry="93.599998"
   rx="62.5"
   cy="220.26408"
   cx="419.87701"
   class="st1" />

<g
   style="display:inline"
   inkscape:label="Body fill"
   inkscape:groupmode="layer"
   transform="translate(-15.981291,-67.799765)"
   id="layer4_1_">
		
	<path
   sodipodi:nodetypes="sassssscssssscscsssssccs"
   inkscape:connector-curvature="0"
   id="path1225"
   d="M 360.75086,619.16405 C 284.49865,615.97884 173.19486,616.63418 82.221005,596.63324 66.631643,593.20585 46.71756,585.6131 37.273762,580.11889 c -4.30798,-2.50631 -10.191013,-5.37592 -11.763115,-11.55694 -1.4572,-5.72923 -1.400204,-21.08373 -0.783541,-29.96699 5.444251,-78.42155 11.982328,-127.77827 38.472605,-181.92418 9.261965,-18.93139 17.808939,-33.83879 29.3656,-51.21866 l 8.082249,-12.15478 -6.309447,-19.69135 C 80.391458,230.07955 75.599758,206.98472 73.732681,174.29274 c -0.719745,-12.60231 -0.09693,-35.84482 1.272936,-47.49969 0.567326,-4.82712 -0.416514,-4.80981 12.953041,-0.22789 45.724282,15.67028 96.050582,51.00888 153.045262,107.46681 L 254.6,247.5 l 12.32131,-1.23996 c 26.06911,-2.62349 67.9683,-7.21531 69.14604,-7.57785 3.53942,-1.08956 4.46879,-10.0295 6.28188,-60.42812 1.63467,-45.43886 4.84094,-73.85032 10.57019,-93.664725 2.0291,-7.017556 3.51973,-15.164813 6.30219,-15.263363 3.71702,-0.131685 24.79488,31.386318 39.19057,51.834748 90.78111,128.95063 137.57779,253.0277 145.63257,386.13131 0.81039,13.39252 1.02575,62.75875 0.10542,72.49353 -0.14739,5.79523 -2.82902,9.02074 -6.86064,11.40071 -36.36868,21.56147 -95.30526,31.37105 -176.53862,27.97777 z"
   style="display:inline;opacity:1;fill:#db325c;fill-opacity:1;stroke:none;stroke-width:0.75122827;stroke-opacity:1" /></g><g
   style="display:inline"
   inkscape:label="Face 1"
   inkscape:groupmode="layer"
   transform="translate(-15.981291,-67.799765)"
   id="layer10_1_">
		<path
   style="stroke:#000000;stroke-width:0.4718"
   d="m 247.6,368.7 c -8.5,0.7 -11.8,14.7 -12,24.1 0.2,15.7 6.1,18 11.3,18.1 12.7,0 15,-11.4 15,-19.1 0.2,-11.7 -6.1,-23 -14.3,-23.1 z"
   class="st6"
   sodipodi:nodetypes="ccccc"
   inkscape:connector-curvature="0"
   id="path5079_1_" />
		<path
   style="stroke:#000000;stroke-width:0.48429999"
   d="m 421.8,370 c -6.1,-0.6 -13.3,12.9 -13.8,23.2 -0.7,19.2 11.3,19.6 13.6,19.7 13.6,-0.6 14.3,-12.9 14.3,-18.8 0,-9.3 -4,-22.8 -14.1,-24.1 z"
   class="st7"
   sodipodi:nodetypes="ccccc"
   inkscape:connector-curvature="0"
   id="path5096_1_" />
		<path
   style="fill:none;stroke:#000000;stroke-width:7.55905533;stroke-linecap:round;stroke-miterlimit:4;stroke-dasharray:none"
   d="m 289.9,480.4 c 11.6,21.9 15.1,26.1 17.6,25.7 3.4,0.2 23.2,-18.6 26.3,-18.7 4.7,0.3 10.4,19.2 14,19.4 7.6,0 24.1,-17.9 37.4,-26.9"
   class="st8"
   sodipodi:nodetypes="ccccc"
   inkscape:connector-curvature="0"
   id="path5100_1_" />
	</g>
<polygon
   style="fill:url(#SVGID_1_)"
   id="polygon193"
   points="233.4,507.5 409.8,491.3 359.5,547.5 "
   class="st12"
   transform="translate(-0.02297426,-24.435915)" /><polygon
   style="fill:url(#SVGID_2_)"
   id="polygon200"
   points="359.5,547.5 464.5,384.6 664.5,379.4 560.5,529.5 "
   class="st13"
   transform="translate(-0.02297426,-24.435915)" />
<path
   inkscape:connector-curvature="0"
   id="ellipse203"
   d="m 149.97703,228.36409 a 62.5,93.599998 0 0 1 -62.500004,93.59999 62.5,93.599998 0 0 1 -62.5,-93.59999 62.5,93.599998 0 0 1 62.5,-93.60001 62.5,93.599998 0 0 1 62.500004,93.60001 z"
   style="fill:#494949;fill-opacity:1" /><path
   inkscape:connector-curvature="0"
   id="ellipse205"
   d="M 131.97703,228.36409 A 62.5,93.599998 0 0 1 69.477026,321.96408 62.5,93.599998 0 0 1 6.9770257,228.36409 62.5,93.599998 0 0 1 69.477026,134.76408 62.5,93.599998 0 0 1 131.97703,228.36409 Z"
   style="fill:#828282;fill-opacity:1" /><path
   inkscape:connector-curvature="0"
   id="ellipse207"
   d="m 80.777025,237.06408 a 22.299999,40.5 0 0 1 -22.299999,40.5 22.299999,40.5 0 0 1 -22.299999,-40.5 22.299999,40.5 0 0 1 22.299999,-40.5 22.299999,40.5 0 0 1 22.299999,40.5 z"
   style="fill:#424242;fill-opacity:1" /><path
   style="fill:none;stroke:#41443e;stroke-width:5;stroke-miterlimit:10"
   inkscape:connector-curvature="0"
   id="path209"
   d="m 58.677026,237.06408 c -0.6,11.10001 -3,79.7 50.800004,133.9 58.5,59 135.2,52.1 145,51"
   class="st15" /><path
   inkscape:connector-curvature="0"
   id="ellipse211"
   d="m 67.877026,237.06408 a 9.3999996,16.799999 0 0 1 -9.4,16.80001 9.3999996,16.799999 0 0 1 -9.4,-16.80001 9.3999996,16.799999 0 0 1 9.4,-16.8 9.3999996,16.799999 0 0 1 9.4,16.8 z"
   style="fill:#41443d;stroke:#41443e;stroke-miterlimit:10" /><path
   inkscape:connector-curvature="0"
   id="ellipse213"
   d="m 246.77848,409.3907 a 24.000456,13.400254 3.4563269 0 1 23.14893,14.82282 24.000456,13.400254 3.4563269 0 1 -24.76467,11.92894 24.000456,13.400254 3.4563269 0 1 -23.14893,-14.82281 24.000456,13.400254 3.4563269 0 1 24.76467,-11.92895 z"
   style="fill:#41443d;stroke:#41443e;stroke-width:1.00001895;stroke-miterlimit:10" /><path
   style="fill:none;stroke:#828480;stroke-width:28;stroke-miterlimit:10;stroke-opacity:1"
   inkscape:connector-curvature="0"
   id="path215"
   d="m 58.977026,174.46408 c 1.8,-6.5 35.1,-118.999995 143.600004,-149.999995 93.6,-26.7 202.2,19 254.7,113.999995"
   class="st17" /><path
   style="fill:#494949;fill-opacity:1"
   inkscape:connector-curvature="0"
   id="path217"
   d="m 435.27703,129.56408 c 5.1,2.30001 12.2,6.2 19.3,12.80001 9.8,9.3 14.7,19.3 17.1,25.3 -1.9,8.8 -4.1,11 -5.9,11.3 -3.7,0.5 -7.5,-6.7 -18,-26.3 -5.7,-10.4 -10.1,-18.5 -12.5,-23.10001 z"
   class="st1" />
</svg>