<?xml version="1.0" encoding="UTF-8" standalone="no"?>
<!-- Created with Inkscape (http://www.inkscape.org/) -->

<svg
   xmlns:dc="http://purl.org/dc/elements/1.1/"
   xmlns:cc="http://creativecommons.org/ns#"
   xmlns:rdf="http://www.w3.org/1999/02/22-rdf-syntax-ns#"
   xmlns:svg="http://www.w3.org/2000/svg"
   xmlns="http://www.w3.org/2000/svg"
   xmlns:sodipodi="http://sodipodi.sourceforge.net/DTD/sodipodi-0.dtd"
   xmlns:inkscape="http://www.inkscape.org/namespaces/inkscape"
   width="699.81274"
   height="740.23389"
   viewBox="0 0 185.15879 195.85355"
   version="1.1"
   id="svg8"
   inkscape:version="0.92.2 2405546, 2018-03-11"
   sodipodi:docname="mewna-1-red.svg"
   inkscape:export-filename="/home/amy/Projects/cute/amy/mewna-3-green.svg.png"
   inkscape:export-xdpi="96"
   inkscape:export-ydpi="96">
  <defs
     id="defs2" />
  <sodipodi:namedview
     id="base"
     pagecolor="#ffffff"
     bordercolor="#666666"
     borderopacity="1.0"
     inkscape:pageopacity="0.0"
     inkscape:pageshadow="2"
     inkscape:zoom="0.5"
     inkscape:cx="462.20764"
     inkscape:cy="475.78933"
     inkscape:document-units="mm"
     inkscape:current-layer="layer10"
     showgrid="false"
     inkscape:window-width="1919"
     inkscape:window-height="1056"
     inkscape:window-x="1"
     inkscape:window-y="1"
     inkscape:window-maximized="1"
     fit-margin-top="0"
     fit-margin-left="0"
     fit-margin-right="0"
     fit-margin-bottom="0"
     units="px" />
  <metadata
     id="metadata5">
    <rdf:RDF>
      <cc:Work
         rdf:about="">
        <dc:format>image/svg+xml</dc:format>
        <dc:type
           rdf:resource="http://purl.org/dc/dcmitype/StillImage" />
        <dc:title></dc:title>
      </cc:Work>
    </rdf:RDF>
  </metadata>
  <g
     inkscape:groupmode="layer"
     id="layer4"
     inkscape:label="Body fill"
     style="display:inline"
     transform="translate(-57.931166,-8.9989577)" />
  <g
     inkscape:groupmode="layer"
     id="layer10"
     inkscape:label="Face 1"
     style="display:inline"
     transform="translate(-57.931166,-8.9989577)">
    <path
       style="display:inline;opacity:1;fill:#db325c;fill-opacity:1;stroke:none;stroke-width:0.26726952;stroke-opacity:1"
       d="m 177.62664,204.6187 c -27.12877,-1.13323 -66.72807,-0.90007 -99.094447,-8.01594 -5.546336,-1.21939 -12.631298,-3.92071 -15.991183,-5.87543 -1.532679,-0.89168 -3.625725,-1.91262 -4.185043,-4.11168 -0.518437,-2.03833 -0.498158,-7.5011 -0.278763,-10.66156 1.936934,-27.90056 4.263031,-45.46053 13.687654,-64.72439 3.29519,-6.73535 6.336006,-12.039051 10.447597,-18.222403 l 2.875481,-4.324387 -2.24476,-7.00573 C 77.881281,66.191485 76.176507,57.974882 75.512242,46.343836 75.256175,41.860228 75.47778,33.591078 75.965124,29.444549 c 0.201842,-1.717373 -0.148185,-1.711217 4.60839,-0.08108 16.267639,5.57512 34.172566,18.147779 54.449946,38.234199 l 4.83716,4.791612 4.38364,-0.44115 c 9.27478,-0.933379 24.18154,-2.567041 24.60055,-2.696025 1.25925,-0.387636 1.5899,-3.568261 2.23495,-21.49892 0.58158,-16.166091 1.72229,-26.274225 3.76063,-33.323733 0.72191,-2.496682 1.25224,-5.3952854 2.24217,-5.430348 1.32243,-0.046842 8.82144,11.16652 13.94309,18.441598 32.29782,45.877633 48.94698,90.021368 51.81267,137.376538 0.28833,4.76475 0.36495,22.3281 0.0375,25.79151 -0.0524,2.06181 -1.00651,3.20936 -2.44085,4.05611 -12.93915,7.67107 -33.9074,11.16109 -62.80833,9.95384 z"
       id="path1225"
       inkscape:connector-curvature="0"
       sodipodi:nodetypes="sassssscssssscscsssssccs" />
    <path
       style="fill:#000000;fill-opacity:1;fill-rule:evenodd;stroke:#000000;stroke-width:0.47177935px;stroke-linecap:butt;stroke-linejoin:miter;stroke-opacity:1"
       d="m 137.3848,115.16741 c -2.99574,0.23288 -4.17627,5.17369 -4.24603,8.49203 0.0608,5.53919 2.14178,6.35614 3.98066,6.3985 4.48391,2.5e-4 5.29385,-4.0063 5.27804,-6.75235 0.11913,-4.11488 -2.1051,-8.09228 -5.01267,-8.13818 z"
       id="path5079"
       inkscape:connector-curvature="0"
       sodipodi:nodetypes="ccccc" />
    <path
       style="fill:#000000;fill-opacity:1;fill-rule:evenodd;stroke:#000000;stroke-width:0.48429045px;stroke-linecap:butt;stroke-linejoin:miter;stroke-opacity:1"
       d="m 198.8265,115.63072 c -2.163,-0.19503 -4.68206,4.56576 -4.87985,8.17589 -0.25198,6.76026 3.99109,6.89686 4.79425,6.93451 4.81013,-0.21857 5.04652,-4.56191 5.05107,-6.63487 0.0412,-3.27082 -1.38665,-8.03203 -4.96547,-8.47553 z"
       id="path5096"
       inkscape:connector-curvature="0"
       sodipodi:nodetypes="ccccc" />
    <path
       style="fill:none;fill-opacity:1;fill-rule:evenodd;stroke:#000000;stroke-width:3;stroke-linecap:round;stroke-linejoin:miter;stroke-miterlimit:4;stroke-dasharray:none;stroke-opacity:1;paint-order:normal"
       d="m 152.29718,154.55751 c 4.09534,7.73828 5.34321,9.19676 6.21301,9.05728 1.18368,0.0763 8.19918,-6.56386 9.28311,-6.58719 1.64553,0.0935 3.68523,6.77674 4.93824,6.85178 2.68968,0.007 8.50671,-6.30323 13.18102,-9.47823"
       id="path5100"
       inkscape:connector-curvature="0"
       sodipodi:nodetypes="ccccc" />
  </g>
</svg>
